# xmcd
#
# Track frame offsets:
#	182
#	18945
#	25160
#	34477
#	36275
#	53027
#	54272
#	69932
#	72052
#	86455
#	88515
#	103435
#	106090
#	122467
#	124675
#	142815
#	143980
#	154455
#	155750
#	174255
#	176360
#	192322
#	196905
#	208930
#	211397
#	228195
#
# Disc length: 3201 seconds
#
# Revision: 3
# Processed by: cddbd v1.5.2PL0 Copyright (c) Steve Scherf et al.
# Submitted via: audiograbber 1.83.01
#
DISCID=630c7f1a
DTITLE=Buckwheat Zydeco - Choo Choo Boogaloo
DYEAR=1994
DGENRE=Zydeco
TTITLE0=Choo Choo Boogaloo
TTITLE1=Narration 1
TTITLE2=Get On Board
TTITLE3=Narration 2
TTITLE4=Give Me A Squeeze, Please
TTITLE5=Narration 3
TTITLE6=Iko Iko
TTITLE7=Narration 4
TTITLE8=Jeleron
TTITLE9=Narration 5
TTITLE10=Cotton Fields
TTITLE11=Narration 6
TTITLE12=Crawfish Song
TTITLE13=Narration 7
TTITLE14=I've Been Working On The Railroad
TTITLE15=Narration 8
TTITLE16=Skip To My Lou
TTITLE17=Narration 9
TTITLE18=Skip to My Blues
TTITLE19=Narration 10
TTITLE20=They All Asked For You
TTITLE21=Narration 11
TTITLE22=Mardi Gras Mambo
TTITLE23=Narration 12
TTITLE24=Little Red Caboose
TTITLE25=Narration 13
EXTD=
EXTT0=
EXTT1=
EXTT2=
EXTT3=
EXTT4=
EXTT5=
EXTT6=
EXTT7=
EXTT8=
EXTT9=
EXTT10=
EXTT11=
EXTT12=
EXTT13=
EXTT14=
EXTT15=
EXTT16=
EXTT17=
EXTT18=
EXTT19=
EXTT20=
EXTT21=
EXTT22=
EXTT23=
EXTT24=
EXTT25=
PLAYORDER=
